<svg xmlns="http://www.w3.org/2000/svg" xmlns:xlink="http://www.w3.org/1999/xlink" width="1712" zoomAndPan="magnify" viewBox="0 0 1284 472.499986" height="630" preserveAspectRatio="xMidYMid meet" version="1.0"><defs><g/><clipPath id="7833fe903d"><path d="M 28.503906 149.5 L 145.527344 149.5 L 145.527344 213.71875 L 28.503906 213.71875 Z M 28.503906 149.5 " clip-rule="nonzero"/></clipPath><clipPath id="fb132b57a8"><path d="M 72.480469 207.46875 L 31.132812 164.597656 C 28.652344 162.023438 27.949219 158.21875 29.347656 154.925781 C 30.746094 151.636719 33.972656 149.5 37.550781 149.5 L 136.539062 149.5 C 140.113281 149.5 143.34375 151.636719 144.742188 154.925781 C 146.140625 158.21875 145.433594 162.023438 142.953125 164.597656 L 101.605469 207.46875 C 97.792969 211.421875 92.535156 213.65625 87.042969 213.65625 C 81.550781 213.65625 76.292969 211.421875 72.480469 207.46875 Z M 72.480469 207.46875 " clip-rule="nonzero"/></clipPath><clipPath id="6c80f33d8a"><path d="M 0.503906 0.5 L 117.527344 0.5 L 117.527344 64.71875 L 0.503906 64.71875 Z M 0.503906 0.5 " clip-rule="nonzero"/></clipPath><clipPath id="9cb9eba15f"><path d="M 44.480469 58.46875 L 3.132812 15.597656 C 0.652344 13.023438 -0.0507812 9.21875 1.347656 5.925781 C 2.746094 2.636719 5.972656 0.5 9.550781 0.5 L 108.539062 0.5 C 112.113281 0.5 115.34375 2.636719 116.742188 5.925781 C 118.140625 9.21875 117.433594 13.023438 114.953125 15.597656 L 73.605469 58.46875 C 69.792969 62.421875 64.535156 64.65625 59.042969 64.65625 C 53.550781 64.65625 48.292969 62.421875 44.480469 58.46875 Z M 44.480469 58.46875 " clip-rule="nonzero"/></clipPath><clipPath id="cd78e7c94a"><rect x="0" width="118" y="0" height="65"/></clipPath><clipPath id="589e0f0e81"><path d="M 0.679688 160.664062 L 64.890625 160.664062 L 64.890625 277.691406 L 0.679688 277.691406 Z M 0.679688 160.664062 " clip-rule="nonzero"/></clipPath><clipPath id="09c897f549"><path d="M 58.636719 233.710938 L 15.765625 275.058594 C 13.195312 277.542969 9.386719 278.246094 6.09375 276.847656 C 2.804688 275.449219 0.667969 272.21875 0.667969 268.644531 L 0.667969 169.65625 C 0.667969 166.082031 2.804688 162.851562 6.09375 161.453125 C 9.386719 160.054688 13.195312 160.757812 15.765625 163.242188 L 58.636719 204.585938 C 62.589844 208.402344 64.824219 213.65625 64.824219 219.148438 C 64.824219 224.644531 62.589844 229.898438 58.636719 233.710938 Z M 58.636719 233.710938 " clip-rule="nonzero"/></clipPath><clipPath id="3ecc8e57a3"><path d="M 0.679688 0.664062 L 64.890625 0.664062 L 64.890625 117.691406 L 0.679688 117.691406 Z M 0.679688 0.664062 " clip-rule="nonzero"/></clipPath><clipPath id="9733b51438"><path d="M 58.636719 73.710938 L 15.765625 115.058594 C 13.195312 117.542969 9.386719 118.246094 6.09375 116.847656 C 2.804688 115.449219 0.667969 112.21875 0.667969 108.644531 L 0.667969 9.65625 C 0.667969 6.082031 2.804688 2.851562 6.09375 1.453125 C 9.386719 0.0546875 13.195312 0.757812 15.765625 3.242188 L 58.636719 44.585938 C 62.589844 48.402344 64.824219 53.65625 64.824219 59.148438 C 64.824219 64.644531 62.589844 69.898438 58.636719 73.710938 Z M 58.636719 73.710938 " clip-rule="nonzero"/></clipPath><clipPath id="39c44be041"><rect x="0" width="65" y="0" height="118"/></clipPath><clipPath id="80da114b94"><path d="M 28.570312 224.570312 L 145.597656 224.570312 L 145.597656 288.789062 L 28.570312 288.789062 Z M 28.570312 224.570312 " clip-rule="nonzero"/></clipPath><clipPath id="31e2fc8d91"><path d="M 101.617188 230.820312 L 142.964844 273.691406 C 145.445312 276.265625 146.152344 280.070312 144.753906 283.363281 C 143.355469 286.652344 140.125 288.789062 136.550781 288.789062 L 37.5625 288.789062 C 33.984375 288.789062 30.757812 286.652344 29.359375 283.363281 C 27.960938 280.070312 28.664062 276.265625 31.144531 273.691406 L 72.492188 230.820312 C 76.304688 226.867188 81.5625 224.632812 87.054688 224.632812 C 92.546875 224.632812 97.804688 226.867188 101.617188 230.820312 Z M 101.617188 230.820312 " clip-rule="nonzero"/></clipPath><clipPath id="08e67def34"><path d="M 0.570312 0.570312 L 117.597656 0.570312 L 117.597656 64.789062 L 0.570312 64.789062 Z M 0.570312 0.570312 " clip-rule="nonzero"/></clipPath><clipPath id="3fecdb7625"><path d="M 73.617188 6.820312 L 114.964844 49.691406 C 117.445312 52.265625 118.152344 56.070312 116.753906 59.363281 C 115.355469 62.652344 112.125 64.789062 108.550781 64.789062 L 9.5625 64.789062 C 5.984375 64.789062 2.757812 62.652344 1.359375 59.363281 C -0.0390625 56.070312 0.664062 52.265625 3.144531 49.691406 L 44.492188 6.820312 C 48.304688 2.867188 53.5625 0.632812 59.054688 0.632812 C 64.546875 0.632812 69.804688 2.867188 73.617188 6.820312 Z M 73.617188 6.820312 " clip-rule="nonzero"/></clipPath><clipPath id="6fe35afb3a"><rect x="0" width="118" y="0" height="65"/></clipPath></defs><g fill="#ffffff" fill-opacity="1"><g transform="translate(146.730349, 288.203361)"><g><path d="M 77.625 2.875 C 69.695312 2.875 62.171875 1.699219 55.046875 -0.640625 C 47.921875 -2.984375 41.398438 -6.300781 35.484375 -10.59375 C 29.578125 -14.882812 24.460938 -19.96875 20.140625 -25.84375 C 15.816406 -31.71875 12.46875 -38.1875 10.09375 -45.25 C 7.71875 -52.3125 6.53125 -59.734375 6.53125 -67.515625 C 6.53125 -75.367188 7.71875 -82.8125 10.09375 -89.84375 C 12.46875 -96.875 15.816406 -103.3125 20.140625 -109.15625 C 24.460938 -115 29.578125 -120.0625 35.484375 -124.34375 C 41.398438 -128.632812 47.921875 -131.953125 55.046875 -134.296875 C 62.171875 -136.640625 69.695312 -137.8125 77.625 -137.8125 C 84.75 -137.8125 91.804688 -136.753906 98.796875 -134.640625 C 105.796875 -132.535156 112.332031 -129.320312 118.40625 -125 C 124.476562 -120.675781 129.625 -115.210938 133.84375 -108.609375 C 138.070312 -102.003906 140.976562 -94.21875 142.5625 -85.25 L 117.421875 -85.25 C 115.640625 -92.175781 112.785156 -97.847656 108.859375 -102.265625 C 104.929688 -106.691406 100.226562 -109.960938 94.75 -112.078125 C 89.269531 -114.191406 83.328125 -115.25 76.921875 -115.25 C 70.585938 -115.25 64.648438 -114.109375 59.109375 -111.828125 C 53.566406 -109.546875 48.695312 -106.289062 44.5 -102.0625 C 40.3125 -97.84375 37.046875 -92.8125 34.703125 -86.96875 C 32.359375 -81.132812 31.1875 -74.617188 31.1875 -67.421875 C 31.1875 -60.097656 32.359375 -53.515625 34.703125 -47.671875 C 37.046875 -41.828125 40.3125 -36.828125 44.5 -32.671875 C 48.695312 -28.515625 53.566406 -25.328125 59.109375 -23.109375 C 64.648438 -20.898438 70.585938 -19.796875 76.921875 -19.796875 C 83.328125 -19.796875 89.253906 -20.851562 94.703125 -22.96875 C 100.148438 -25.082031 104.851562 -28.347656 108.8125 -32.765625 C 112.769531 -37.191406 115.609375 -42.835938 117.328125 -49.703125 L 142.5625 -49.703125 C 140.976562 -40.722656 138.070312 -32.914062 133.84375 -26.28125 C 129.625 -19.65625 124.507812 -14.195312 118.5 -9.90625 C 112.5 -5.613281 105.984375 -2.410156 98.953125 -0.296875 C 91.921875 1.816406 84.8125 2.875 77.625 2.875 Z M 77.625 2.875 "/></g></g></g><g fill="#ffffff" fill-opacity="1"><g transform="translate(288.638909, 288.203361)"><g><path d="M 38.015625 0 L 14.0625 0 L 14.0625 -139.40625 L 38.015625 -139.40625 L 38.015625 -97.921875 L 37.421875 -86.53125 C 40.585938 -92.070312 45.125 -96.507812 51.03125 -99.84375 C 56.945312 -103.175781 63.796875 -104.84375 71.578125 -104.84375 C 85.242188 -104.84375 95.472656 -100.503906 102.265625 -91.828125 C 109.066406 -83.148438 112.46875 -70.820312 112.46875 -54.84375 L 112.46875 0 L 88.515625 0 L 88.515625 -54.359375 C 88.515625 -64.453125 86.398438 -71.707031 82.171875 -76.125 C 77.953125 -80.550781 72.210938 -82.765625 64.953125 -82.765625 C 61.453125 -82.765625 58.082031 -82.019531 54.84375 -80.53125 C 51.613281 -79.050781 48.726562 -76.957031 46.1875 -74.25 C 43.644531 -71.550781 41.644531 -68.300781 40.1875 -64.5 C 38.738281 -60.707031 38.015625 -56.535156 38.015625 -51.984375 Z M 38.015625 0 "/></g></g></g><g fill="#ffffff" fill-opacity="1"><g transform="translate(407.082068, 288.203361)"><g><path d="M 54.75 3.0625 C 47.882812 3.0625 41.53125 1.675781 35.6875 -1.09375 C 29.851562 -3.863281 24.769531 -7.722656 20.4375 -12.671875 C 16.113281 -17.617188 12.765625 -23.359375 10.390625 -29.890625 C 8.015625 -36.429688 6.828125 -43.429688 6.828125 -50.890625 C 6.828125 -58.347656 8.03125 -65.328125 10.4375 -71.828125 C 12.851562 -78.328125 16.222656 -84.050781 20.546875 -89 C 24.867188 -93.957031 29.929688 -97.835938 35.734375 -100.640625 C 41.546875 -103.441406 47.851562 -104.84375 54.65625 -104.84375 C 62.96875 -104.84375 70.359375 -103.046875 76.828125 -99.453125 C 83.296875 -95.859375 88.148438 -90.890625 91.390625 -84.546875 L 91.390625 -101.78125 L 114.15625 -101.78125 L 114.15625 0 L 91.390625 0 L 91.390625 -17.125 C 88.085938 -10.789062 83.21875 -5.84375 76.78125 -2.28125 C 70.34375 1.277344 63 3.0625 54.75 3.0625 Z M 60.5 -19.109375 C 64.65625 -19.109375 68.546875 -19.914062 72.171875 -21.53125 C 75.804688 -23.144531 78.992188 -25.390625 81.734375 -28.265625 C 84.472656 -31.140625 86.597656 -34.503906 88.109375 -38.359375 C 89.628906 -42.222656 90.390625 -46.398438 90.390625 -50.890625 C 90.390625 -55.304688 89.613281 -59.445312 88.0625 -63.3125 C 86.507812 -67.175781 84.378906 -70.554688 81.671875 -73.453125 C 78.972656 -76.359375 75.804688 -78.617188 72.171875 -80.234375 C 68.546875 -81.859375 64.65625 -82.671875 60.5 -82.671875 C 55.019531 -82.671875 50.019531 -81.347656 45.5 -78.703125 C 40.976562 -76.066406 37.363281 -72.375 34.65625 -67.625 C 31.945312 -62.875 30.59375 -57.296875 30.59375 -50.890625 C 30.59375 -44.285156 31.960938 -38.609375 34.703125 -33.859375 C 37.441406 -29.109375 41.085938 -25.460938 45.640625 -22.921875 C 50.191406 -20.378906 55.144531 -19.109375 60.5 -19.109375 Z M 60.5 -19.109375 "/></g></g></g><g fill="#ffffff" fill-opacity="1"><g transform="translate(528.00046, 288.203361)"><g><path d="M 38.015625 0 L 14.0625 0 L 14.0625 -101.78125 L 37.03125 -101.78125 L 37.03125 -83.359375 C 39.40625 -88.972656 42.898438 -93.445312 47.515625 -96.78125 C 52.140625 -100.113281 57.753906 -101.78125 64.359375 -101.78125 L 75.25 -101.78125 L 75.25 -81.1875 L 65.640625 -81.1875 C 60.160156 -81.1875 55.34375 -79.863281 51.1875 -77.21875 C 47.03125 -74.582031 43.796875 -70.753906 41.484375 -65.734375 C 39.171875 -60.722656 38.015625 -54.585938 38.015625 -47.328125 Z M 38.015625 0 "/></g></g></g><g fill="#ffffff" fill-opacity="1"><g transform="translate(595.156334, 288.203361)"><g><path d="M 59.40625 3.0625 C 51.8125 3.0625 44.8125 1.660156 38.40625 -1.140625 C 32.007812 -3.941406 26.453125 -7.816406 21.734375 -12.765625 C 17.015625 -17.722656 13.347656 -23.46875 10.734375 -30 C 8.128906 -36.53125 6.828125 -43.492188 6.828125 -50.890625 C 6.828125 -58.285156 8.128906 -65.234375 10.734375 -71.734375 C 13.347656 -78.234375 17.015625 -83.972656 21.734375 -88.953125 C 26.453125 -93.941406 32.007812 -97.835938 38.40625 -100.640625 C 44.8125 -103.441406 51.8125 -104.84375 59.40625 -104.84375 C 68.1875 -104.84375 76.023438 -103.144531 82.921875 -99.75 C 89.816406 -96.351562 95.585938 -91.71875 100.234375 -85.84375 C 104.890625 -79.96875 108.175781 -73.300781 110.09375 -65.84375 L 85.640625 -65.84375 C 83.398438 -71.519531 79.9375 -75.726562 75.25 -78.46875 C 70.5625 -81.207031 65.3125 -82.578125 59.5 -82.578125 C 55.800781 -82.578125 52.234375 -81.863281 48.796875 -80.4375 C 45.367188 -79.019531 42.285156 -76.957031 39.546875 -74.25 C 36.804688 -71.550781 34.628906 -68.234375 33.015625 -64.296875 C 31.398438 -60.367188 30.59375 -55.898438 30.59375 -50.890625 C 30.59375 -45.867188 31.398438 -41.394531 33.015625 -37.46875 C 34.628906 -33.539062 36.804688 -30.207031 39.546875 -27.46875 C 42.285156 -24.726562 45.390625 -22.648438 48.859375 -21.234375 C 52.328125 -19.816406 55.875 -19.109375 59.5 -19.109375 C 65.3125 -19.109375 70.5625 -20.539062 75.25 -23.40625 C 79.9375 -26.28125 83.398438 -30.882812 85.640625 -37.21875 L 110 -37.21875 C 108.28125 -29.363281 105.078125 -22.398438 100.390625 -16.328125 C 95.703125 -10.265625 89.875 -5.515625 82.90625 -2.078125 C 75.945312 1.347656 68.113281 3.0625 59.40625 3.0625 Z M 59.40625 3.0625 "/></g></g></g><g fill="#ffffff" fill-opacity="1"><g transform="translate(703.203398, 288.203361)"><g><path d="M 38.015625 0 L 14.0625 0 L 14.0625 -139.40625 L 38.015625 -139.40625 L 38.015625 -97.921875 L 37.421875 -86.53125 C 40.585938 -92.070312 45.125 -96.507812 51.03125 -99.84375 C 56.945312 -103.175781 63.796875 -104.84375 71.578125 -104.84375 C 85.242188 -104.84375 95.472656 -100.503906 102.265625 -91.828125 C 109.066406 -83.148438 112.46875 -70.820312 112.46875 -54.84375 L 112.46875 0 L 88.515625 0 L 88.515625 -54.359375 C 88.515625 -64.453125 86.398438 -71.707031 82.171875 -76.125 C 77.953125 -80.550781 72.210938 -82.765625 64.953125 -82.765625 C 61.453125 -82.765625 58.082031 -82.019531 54.84375 -80.53125 C 51.613281 -79.050781 48.726562 -76.957031 46.1875 -74.25 C 43.644531 -71.550781 41.644531 -68.300781 40.1875 -64.5 C 38.738281 -60.707031 38.015625 -56.535156 38.015625 -51.984375 Z M 38.015625 0 "/></g></g></g><g fill="#ffffff" fill-opacity="1"><g transform="translate(821.646535, 288.203361)"><g><path d="M 54.75 3.0625 C 47.882812 3.0625 41.53125 1.675781 35.6875 -1.09375 C 29.851562 -3.863281 24.769531 -7.722656 20.4375 -12.671875 C 16.113281 -17.617188 12.765625 -23.359375 10.390625 -29.890625 C 8.015625 -36.429688 6.828125 -43.429688 6.828125 -50.890625 C 6.828125 -58.347656 8.03125 -65.328125 10.4375 -71.828125 C 12.851562 -78.328125 16.222656 -84.050781 20.546875 -89 C 24.867188 -93.957031 29.929688 -97.835938 35.734375 -100.640625 C 41.546875 -103.441406 47.851562 -104.84375 54.65625 -104.84375 C 62.96875 -104.84375 70.359375 -103.046875 76.828125 -99.453125 C 83.296875 -95.859375 88.148438 -90.890625 91.390625 -84.546875 L 91.390625 -101.78125 L 114.15625 -101.78125 L 114.15625 0 L 91.390625 0 L 91.390625 -17.125 C 88.085938 -10.789062 83.21875 -5.84375 76.78125 -2.28125 C 70.34375 1.277344 63 3.0625 54.75 3.0625 Z M 60.5 -19.109375 C 64.65625 -19.109375 68.546875 -19.914062 72.171875 -21.53125 C 75.804688 -23.144531 78.992188 -25.390625 81.734375 -28.265625 C 84.472656 -31.140625 86.597656 -34.503906 88.109375 -38.359375 C 89.628906 -42.222656 90.390625 -46.398438 90.390625 -50.890625 C 90.390625 -55.304688 89.613281 -59.445312 88.0625 -63.3125 C 86.507812 -67.175781 84.378906 -70.554688 81.671875 -73.453125 C 78.972656 -76.359375 75.804688 -78.617188 72.171875 -80.234375 C 68.546875 -81.859375 64.65625 -82.671875 60.5 -82.671875 C 55.019531 -82.671875 50.019531 -81.347656 45.5 -78.703125 C 40.976562 -76.066406 37.363281 -72.375 34.65625 -67.625 C 31.945312 -62.875 30.59375 -57.296875 30.59375 -50.890625 C 30.59375 -44.285156 31.960938 -38.609375 34.703125 -33.859375 C 37.441406 -29.109375 41.085938 -25.460938 45.640625 -22.921875 C 50.191406 -20.378906 55.144531 -19.109375 60.5 -19.109375 Z M 60.5 -19.109375 "/></g></g></g><g fill="#84e4a8" fill-opacity="1"><g transform="translate(942.575628, 288.203361)"><g><path d="M 26.625 2.46875 C 23.851562 2.46875 21.425781 1.875 19.34375 0.6875 C 17.269531 -0.496094 15.640625 -2.097656 14.453125 -4.109375 C 13.265625 -6.117188 12.671875 -8.3125 12.671875 -10.6875 C 12.671875 -13.0625 13.25 -15.253906 14.40625 -17.265625 C 15.5625 -19.285156 17.191406 -20.890625 19.296875 -22.078125 C 21.410156 -23.265625 23.890625 -23.859375 26.734375 -23.859375 C 29.566406 -23.859375 32.019531 -23.265625 34.09375 -22.078125 C 36.175781 -20.890625 37.8125 -19.285156 39 -17.265625 C 40.195312 -15.253906 40.796875 -13.0625 40.796875 -10.6875 C 40.796875 -7.0625 39.503906 -3.960938 36.921875 -1.390625 C 34.347656 1.179688 30.914062 2.46875 26.625 2.46875 Z M 26.625 2.46875 "/></g></g></g><g fill="#ffffff" fill-opacity="1"><g transform="translate(988.850878, 288.203361)"><g><path d="M 136.328125 0 L 110.296875 0 L 99.59375 -26.03125 L 37.625 -26.03125 L 26.9375 0 L 0.890625 0 L 56.921875 -134.75 L 80.296875 -134.75 Z M 67.71875 -99.703125 L 46.03125 -46.625 L 91.1875 -46.625 L 69.40625 -99.703125 L 68.8125 -102.96875 L 68.515625 -102.96875 Z M 67.71875 -99.703125 "/></g></g></g><g fill="#ffffff" fill-opacity="1"><g transform="translate(1118.878211, 288.203361)"><g><path d="M 40.6875 0 L 16.046875 0 L 16.046875 -134.65625 L 40.6875 -134.65625 Z M 40.6875 0 "/></g></g></g><g clip-path="url(#7833fe903d)"><g clip-path="url(#fb132b57a8)"><g transform="matrix(1, 0, 0, 1, 28, 149)"><g clip-path="url(#cd78e7c94a)"><g clip-path="url(#6c80f33d8a)"><g clip-path="url(#9cb9eba15f)"><path fill="#98fb98" d="M 129.515625 73.566406 L -11.484375 73.566406 L -11.484375 0.5 L 129.515625 0.5 Z M 129.515625 73.566406 " fill-opacity="1" fill-rule="nonzero"/></g></g></g></g></g></g><g clip-path="url(#589e0f0e81)"><g clip-path="url(#09c897f549)"><g transform="matrix(1, 0, 0, 1, 0, 160)"><g clip-path="url(#39c44be041)"><g clip-path="url(#3ecc8e57a3)"><g clip-path="url(#9733b51438)"><path fill="#84e4a8" d="M 73.738281 -11.320312 L 73.738281 129.679688 L 0.667969 129.679688 L 0.667969 -11.320312 Z M 73.738281 -11.320312 " fill-opacity="1" fill-rule="nonzero"/></g></g></g></g></g></g><g clip-path="url(#80da114b94)"><g clip-path="url(#31e2fc8d91)"><g transform="matrix(1, 0, 0, 1, 28, 224)"><g clip-path="url(#6fe35afb3a)"><g clip-path="url(#08e67def34)"><g clip-path="url(#3fecdb7625)"><path fill="#167544" d="M -11.417969 -8.28125 L 129.582031 -8.28125 L 129.582031 64.789062 L -11.417969 64.789062 Z M -11.417969 -8.28125 " fill-opacity="1" fill-rule="nonzero"/></g></g></g></g></g></g></svg>